# xmcd CD database file
#
# Track frame offsets:
#	150
#	23202
#	43965
#	67572
#	90630
#	113670
#	134432
#
# Disc length: 2106 seconds
#
# Revision: 0
# Processed by: cddbd v1.5.2PL0 Copyright (c) Steve Scherf et al.
# Submitted via: CDex 1.70beta2
#
DISCID=54083807
DTITLE=AAA - 旅ダチノウタ
DYEAR=2009
DGENRE=avex
TTITLE0=旅ダチノウタ
TTITLE1=Mosaic
TTITLE2=a piece of my word
TTITLE3=旅ダチノウタ [TW Departure Mix]
TTITLE4=旅ダチノウタ (Instrumental)
TTITLE5=Mosaic (Instrumental)
TTITLE6=a piece of my word
EXTD=YEAR: 2009
EXTT0=
EXTT1=
EXTT2=
EXTT3=
EXTT4=
EXTT5=
EXTT6=
PLAYORDER=
